<svg width="32" height="32" viewBox="0 0 32 32" fill="none" xmlns="http://www.w3.org/2000/svg">
  <rect width="32" height="32" rx="8" fill="#F9F5FF"/>
  <path d="M16 6C10.477 6 6 10.477 6 16s4.477 10 10 10 10-4.477 10-10S21.523 6 16 6z" fill="#8B5CF6"/>
  <path d="M16 10c-3.314 0-6 2.686-6 6s2.686 6 6 6 6-2.686 6-6-2.686-6-6-6z" fill="#F9F5FF"/>
  <path d="M16 13c-1.657 0-3 1.343-3 3s1.343 3 3 3 3-1.343 3-3-1.343-3-3-3z" fill="#8B5CF6"/>
  <path d="M16 15.5c-.276 0-.5.224-.5.5s.224.5.5.5.5-.224.5-.5-.224-.5-.5-.5z" fill="#F9F5FF"/>
</svg>
